<?xml version="1.0" encoding="UTF-8"?>
<!DOCTYPE svg PUBLIC "-//W3C//DTD SVG 1.1//EN" "http://www.w3.org/Graphics/SVG/1.1/DTD/svg11.dtd">
<svg xmlns="http://www.w3.org/2000/svg" version="1.1" width="103px" height="101px" style="shape-rendering:geometricPrecision; text-rendering:geometricPrecision; image-rendering:optimizeQuality; fill-rule:evenodd; clip-rule:evenodd" xmlns:xlink="http://www.w3.org/1999/xlink">
<g><path style="opacity:1" fill="#ffcd3e" d="M -0.5,-0.5 C 33.8333,-0.5 68.1667,-0.5 102.5,-0.5C 102.5,33.1667 102.5,66.8333 102.5,100.5C 68.1667,100.5 33.8333,100.5 -0.5,100.5C -0.5,66.8333 -0.5,33.1667 -0.5,-0.5 Z"/></g>
<g><path style="opacity:1" fill="#fffdfb" d="M 46.5,16.5 C 57.856,15.5627 67.6893,18.896 76,26.5C 79.1086,30.8771 79.2753,35.3771 76.5,40C 71.3543,42.5039 66.8543,41.6706 63,37.5C 60.2903,33.2467 57.457,29.0801 54.5,25C 47.0968,21.784 41.9301,23.9507 39,31.5C 36.1808,42.7243 38.1808,53.0576 45,62.5C 56.0132,71.3471 65.8466,70.1805 74.5,59C 75.7932,58.51 77.1266,58.3433 78.5,58.5C 78.8432,71.3238 72.8432,79.4905 60.5,83C 40.0537,85.2196 27.2204,76.3863 22,56.5C 19.3114,36.1661 27.4781,22.8327 46.5,16.5 Z"/></g>
</svg>
